# xmcd CD database file
#
# Track frame offsets:
#	150
#	14402
#	32095
#	53165
#
# Disc length: 1014 seconds
#
# Revision: 0
# Processed by: cddbd v1.5.1PL0 Copyright (c) Steve Scherf et al.
# Submitted via: CDex 1.51
#
DISCID=2a03f404
DTITLE=Dreamcatcher - In a Ocean of Joy
DYEAR=1997
DGENRE=New Age
TTITLE0=In a Ocean of Joy (Single Edit)
TTITLE1=In a Ocean of Joy (Wave On Edit)
TTITLE2=After Dreaming
TTITLE3=In a Ocean of Joy (Deep Float)
EXTD=YEAR: 1997
EXTT0=
EXTT1=
EXTT2=
EXTT3=
PLAYORDER=
